<svg width="24" height="24" viewBox="0 0 24 24" fill="none" xmlns="http://www.w3.org/2000/svg">
<g clip-path="url(#clip0_10043_4276)">
<circle cx="12" cy="12" r="12" fill="#FF5656"/>
<path fill-rule="evenodd" clip-rule="evenodd" d="M7.35963 7.35961C6.92029 7.79895 6.92029 8.51126 7.35963 8.9506L10.409 12L7.35963 15.0494C6.92029 15.4887 6.92029 16.201 7.35963 16.6404C7.79897 17.0797 8.51128 17.0797 8.95062 16.6404L12 13.591L15.0494 16.6404C15.4888 17.0797 16.2011 17.0797 16.6404 16.6404C17.0797 16.201 17.0797 15.4887 16.6404 15.0494L13.591 12L16.6404 8.9506C17.0797 8.51126 17.0797 7.79895 16.6404 7.35961C16.2011 6.92027 15.4888 6.92027 15.0494 7.35961L12 10.409L8.95062 7.35961C8.51128 6.92027 7.79897 6.92027 7.35963 7.35961Z" fill="white"/>
</g>
<defs>
<clipPath id="clip0_10043_4276">
<rect width="24" height="24" fill="white"/>
</clipPath>
</defs>
</svg>
