<svg width="24" height="24" viewBox="0 0 24 24" fill="none" xmlns="http://www.w3.org/2000/svg">
<path opacity="0.12" fill-rule="evenodd" clip-rule="evenodd" d="M12 5.25C11.1136 5.25 10.2358 5.42459 9.41689 5.76381C8.59794 6.10303 7.85383 6.60023 7.22703 7.22703C6.60024 7.85382 6.10303 8.59794 5.76381 9.41688C5.42459 10.2358 5.25 11.1136 5.25 12C5.25 12.8864 5.42459 13.7642 5.76381 14.5831C6.10303 15.4021 6.60023 16.1462 7.22703 16.773C7.85382 17.3998 8.59794 17.897 9.41688 18.2362C10.2358 18.5754 11.1136 18.75 12 18.75C12.8864 18.75 13.7642 18.5754 14.5831 18.2362C15.4021 17.897 16.1462 17.3998 16.773 16.773C17.3998 16.1462 17.897 15.4021 18.2362 14.5831C18.5754 13.7642 18.75 12.8864 18.75 12C18.75 11.1136 18.5754 10.2358 18.2362 9.41689C17.897 8.59794 17.3998 7.85383 16.773 7.22703C16.1462 6.60023 15.4021 6.10303 14.5831 5.76381C13.7642 5.42459 12.8864 5.25 12 5.25ZM7.98183 2.29926C9.25575 1.77159 10.6211 1.5 12 1.5C13.3789 1.5 14.7443 1.77159 16.0182 2.29927C17.2921 2.82694 18.4496 3.60036 19.4246 4.57538C20.3996 5.5504 21.1731 6.70791 21.7007 7.98183C22.2284 9.25574 22.5 10.6211 22.5 12C22.5 13.3789 22.2284 14.7443 21.7007 16.0182C21.1731 17.2921 20.3996 18.4496 19.4246 19.4246C18.4496 20.3996 17.2921 21.1731 16.0182 21.7007C14.7443 22.2284 13.3789 22.5 12 22.5C10.6211 22.5 9.25574 22.2284 7.98182 21.7007C6.7079 21.1731 5.55039 20.3996 4.57538 19.4246C3.60036 18.4496 2.82694 17.2921 2.29926 16.0182C1.77159 14.7443 1.5 13.3789 1.5 12C1.5 10.6211 1.77159 9.25574 2.29927 7.98182C2.82694 6.7079 3.60037 5.55039 4.57538 4.57537C5.5504 3.60036 6.70791 2.82694 7.98183 2.29926Z" fill="#708DFF"/>
<path fill-rule="evenodd" clip-rule="evenodd" d="M10.125 3.375C10.125 2.33947 10.9645 1.5 12 1.5C14.1185 1.5 16.1875 2.14084 17.9351 3.33832C19.6827 4.53581 21.0272 6.23393 21.792 8.2096C22.5567 10.1853 22.706 12.3461 22.2201 14.4081C21.7343 16.4702 20.636 18.337 19.0696 19.7634C17.5033 21.1898 15.542 22.109 13.4436 22.4003C11.3452 22.6915 9.20781 22.3413 7.31216 21.3954C5.4165 20.4496 3.85129 18.9524 2.82216 17.1007C1.79302 15.2489 1.3481 13.1292 1.54585 11.0199C1.64251 9.9889 2.55666 9.23146 3.58768 9.32811C4.61869 9.42477 5.37613 10.3389 5.27948 11.3699C5.15235 12.7259 5.43837 14.0886 6.09996 15.279C6.76155 16.4694 7.76775 17.4319 8.98639 18.0399C10.205 18.6479 11.5791 18.8731 12.9281 18.6859C14.277 18.4986 15.5378 17.9077 16.5448 16.9908C17.5517 16.0738 18.2577 14.8737 18.5701 13.5481C18.8824 12.2225 18.7865 10.8334 18.2948 9.56331C17.8032 8.29324 16.9389 7.20159 15.8154 6.43178C14.692 5.66197 13.3619 5.25 12 5.25C10.9645 5.25 10.125 4.41053 10.125 3.375Z" fill="#708DFF"/>
</svg>
