<svg width="28" height="28" viewBox="0 0 28 28" fill="none" xmlns="http://www.w3.org/2000/svg">
<path fill-rule="evenodd" clip-rule="evenodd" d="M10.3616 9.75484C10.3616 8.49092 9.33695 7.46631 8.07303 7.46631H6.79747C6.14131 7.46631 5.60938 7.99823 5.60938 8.65439C5.60938 9.31056 5.07723 9.84248 4.42107 9.84248C3.76466 9.84248 3.2323 10.3746 3.2323 11.031V16.9702C3.2323 17.6267 3.7647 18.1588 4.42111 18.1588C5.07723 18.1588 5.60938 18.6907 5.60938 19.3468C5.60938 20.0029 6.14127 20.5348 6.79739 20.5348H8.07303C9.33695 20.5348 10.3616 19.5102 10.3616 18.2463V15.6773H17.5101V18.2463C17.5101 19.5102 18.5347 20.5348 19.7986 20.5348H21.0742C21.7304 20.5348 22.2622 20.0029 22.2622 19.3468C22.2622 18.6907 22.7944 18.1588 23.4505 18.1588C24.1069 18.1588 24.6393 17.6267 24.6393 16.9702V11.031C24.6393 10.3746 24.107 9.84248 23.4506 9.84248C22.7944 9.84248 22.2622 9.31056 22.2622 8.65439C22.2622 7.99823 21.7303 7.46631 21.0742 7.46631H19.7986C18.5347 7.46631 17.5101 8.49092 17.5101 9.75484V12.3228H10.3616V9.75484Z" fill="#4AC3E3"/>
</svg>
