<svg width="28" height="28" viewBox="0 0 28 28" fill="none" xmlns="http://www.w3.org/2000/svg">
<path fill-rule="evenodd" clip-rule="evenodd" d="M5.83333 14C5.83333 9.48967 9.48967 5.83333 14 5.83333C14.5757 5.83333 15.1369 5.89274 15.6779 6.00563L14.2122 7.47134L15.8621 9.12125L19.2633 5.72007C19.5516 5.43174 19.4627 4.94411 19.0912 4.77609L18.3226 4.42852C17.0029 3.83167 15.5386 3.5 14 3.5C8.20101 3.5 3.5 8.20101 3.5 14C3.5 15.2908 3.73345 16.5297 4.16144 17.675L6.34716 16.8583C6.01531 15.9702 5.83333 15.0077 5.83333 14ZM22.1667 13.9999C22.1667 18.5102 18.5103 22.1666 14 22.1666C13.4243 22.1666 12.8631 22.1072 12.3221 21.9943L13.7878 20.5286L12.1379 18.8787L8.73674 22.2798C8.44841 22.5682 8.53731 23.0558 8.90885 23.2238L9.67737 23.5714C10.9971 24.1682 12.4614 24.4999 14 24.4999C19.799 24.4999 24.5 19.7989 24.5 13.9999C24.5 12.7091 24.2666 11.4702 23.8386 10.3249L21.6528 11.1416C21.9847 12.0297 22.1667 12.9922 22.1667 13.9999Z" fill="black"/>
</svg>
