<svg width="20" height="20" viewBox="0 0 20 20" fill="none" xmlns="http://www.w3.org/2000/svg">
<path fill-rule="evenodd" clip-rule="evenodd" d="M4.88886 3.92092C4.88886 3.22785 5.4507 2.66602 6.14376 2.66602H13.8562C14.5492 2.66602 15.1111 3.22785 15.1111 3.92092V4.88824H16.9608C17.4733 4.88824 17.8889 5.30376 17.8889 5.81634V7.22157C17.8889 9.00378 16.5353 10.4699 14.8001 10.6479C14.169 12.3691 12.6384 13.6565 10.7778 13.9405V16.666L13.8889 16.666V17.9993H6.11108V16.666L9.44442 16.666V13.9695C7.48401 13.7576 5.85595 12.4372 5.19983 10.6479C3.46464 10.4699 2.11108 9.00378 2.11108 7.22157V5.81634C2.11108 5.30376 2.52661 4.88824 3.03919 4.88824H4.88886V3.92092ZM15.0999 9.22894C15.9449 8.95318 16.5555 8.15868 16.5555 7.22157V6.22157H15.1111V8.88824C15.1111 9.00272 15.1073 9.11633 15.0999 9.22894ZM4.88886 8.88824C4.88886 9.00272 4.89263 9.11633 4.90004 9.22894C4.055 8.95318 3.44442 8.15868 3.44442 7.22157V6.22157H4.88886V8.88824ZM6.2222 3.99935V8.88824C6.2222 10.9746 7.91356 12.666 9.99997 12.666C12.0864 12.666 13.7778 10.9746 13.7778 8.88824V3.99935H6.2222Z" fill="black"/>
</svg>
