<svg width="68" height="61" viewBox="0 0 68 61" fill="none" xmlns="http://www.w3.org/2000/svg">
<path opacity="0.3" fill-rule="evenodd" clip-rule="evenodd" d="M68 23.9182L66.5272 23.068L45.2756 59.8768L46.7484 60.7271L68 23.9182ZM62.7524 21.146L64.2252 21.9963L42.9736 58.8052L41.5008 57.9549L62.7524 21.146ZM60.4507 20.0736L58.978 19.2233L37.7264 56.0322L39.1991 56.8825L60.4507 20.0736ZM55.2073 17.3005L56.6801 18.1508L35.4285 54.9597L33.9557 54.1094L55.2073 17.3005ZM52.9055 16.229L51.4327 15.3787L30.1811 52.1876L31.6538 53.0379L52.9055 16.229ZM47.6581 13.4569L49.1308 14.3072L27.8792 51.116L26.4065 50.2658L47.6581 13.4569ZM45.3602 12.3844L43.8874 11.5341L22.6358 48.343L24.1086 49.1932L45.3602 12.3844ZM40.1128 9.61128L41.5856 10.4616L20.334 47.2704L18.8612 46.4201L40.1128 9.61128ZM37.8149 8.54073L36.3421 7.69044L15.0905 44.4993L16.5633 45.3496L37.8149 8.54073ZM32.5675 5.76764L34.0403 6.61793L12.7887 43.4268L11.3159 42.5765L32.5675 5.76764ZM30.2657 4.69512L28.7929 3.84483L7.54131 40.6537L9.01405 41.504L30.2657 4.69512ZM25.0222 1.92203L26.495 2.77232L5.24338 39.5812L3.77064 38.7309L25.0222 1.92203ZM21.2516 0.000208613L22.7243 0.850498L1.47271 37.6594L-3.27401e-05 36.8091L21.2516 0.000208613Z" fill="#1C1C26"/>
</svg>
