<svg width="28" height="28" viewBox="0 0 28 28" fill="none" xmlns="http://www.w3.org/2000/svg">
<path fill-rule="evenodd" clip-rule="evenodd" d="M19.2444 4.6665C18.8699 4.6665 18.5664 4.97004 18.5664 5.34448C18.5664 5.71891 18.8699 6.02245 19.2444 6.02245H21.3948L18.6856 8.39302C18.0574 8.94267 18.4462 9.97729 19.2808 9.97729H22.6342C23.0086 9.97729 23.3122 9.67375 23.3122 9.29931C23.3122 8.92488 23.0086 8.62134 22.6342 8.62134H20.4838L23.193 6.25077C23.8212 5.70112 23.4324 4.6665 22.5977 4.6665H19.2444ZM4.89221 14.1495C4.89221 19.0624 8.87488 23.0451 13.7878 23.0451C18.7006 23.0451 22.6833 19.0624 22.6833 14.1495C22.6833 13.4091 21.6004 13.2496 21.046 13.7404C20.19 14.4982 19.0643 14.9582 17.8312 14.9582C15.1514 14.9582 12.9791 12.7858 12.9791 10.1061C12.9791 8.8729 13.4391 7.74719 14.1969 6.89116C14.6876 6.33679 14.5281 5.25392 13.7878 5.25392C8.87488 5.25392 4.89221 9.23662 4.89221 14.1495Z" fill="#4667A1"/>
</svg>
