<svg width="20" height="20" viewBox="0 0 20 20" fill="none" xmlns="http://www.w3.org/2000/svg">
<g opacity="0.7">
<path fill-rule="evenodd" clip-rule="evenodd" d="M4.16667 10C4.16667 6.77834 6.77834 4.16667 10 4.16667C10.4112 4.16667 10.812 4.2091 11.1985 4.28973L10.1515 5.33667L11.3301 6.51518L13.7595 4.08577C13.9654 3.87982 13.9019 3.53151 13.6365 3.41149L13.0876 3.16323C12.1449 2.73691 11.099 2.5 10 2.5C5.85786 2.5 2.5 5.85786 2.5 10C2.5 10.922 2.66675 11.8069 2.97246 12.625L4.53368 12.0416C4.29665 11.4073 4.16667 10.7198 4.16667 10ZM15.8333 9.99994C15.8333 13.2216 13.2217 15.8333 10 15.8333C9.58877 15.8333 9.18796 15.7908 8.80152 15.7102L9.84845 14.6633L8.66994 13.4848L6.24053 15.9142C6.03458 16.1201 6.09808 16.4684 6.36346 16.5885L6.91241 16.8367C7.85509 17.263 8.901 17.4999 10 17.4999C14.1421 17.4999 17.5 14.1421 17.5 9.99994C17.5 9.07796 17.3333 8.19302 17.0275 7.37491L15.4663 7.95831C15.7034 8.59264 15.8333 9.28016 15.8333 9.99994Z" fill="black"/>
</g>
</svg>
