<svg width="20" height="20" viewBox="0 0 20 20" fill="none" xmlns="http://www.w3.org/2000/svg">
<path fill-rule="evenodd" clip-rule="evenodd" d="M4.10766 2.92877L4.1076 2.92871L2.92915 4.10716L15.8927 17.0707L15.8926 17.0708L15.8927 17.0708L17.071 15.8925L12.9785 11.8001L12.9788 11.7999L11.9401 10.7612C12.0326 10.5254 12.0835 10.2686 12.0835 9.99996C12.0835 8.84937 11.1508 7.91663 10.0002 7.91663C9.73152 7.91663 9.47475 7.96748 9.23896 8.06007L8.57703 7.39814L8.57696 7.3982L4.1076 2.92884L4.10766 2.92877ZM9.38372 5.84793L7.86196 4.32617C8.54797 4.22186 9.26393 4.16663 10.0002 4.16663C15.0628 4.16663 19.1668 6.7783 19.1668 9.99996C19.1668 11.3744 18.4199 12.6378 17.1702 13.6347L15.9825 12.447C17.0647 11.6419 17.5002 10.7571 17.5002 9.99996C17.5002 9.15661 16.9599 8.15481 15.5872 7.28128C14.2343 6.42033 12.2635 5.8333 10.0002 5.8333C9.79212 5.8333 9.58656 5.83826 9.38372 5.84793ZM12.1387 15.6737L10.6169 14.152C10.414 14.1617 10.2083 14.1666 10.0002 14.1666C7.73687 14.1666 5.76606 13.5796 4.41314 12.7186C3.04045 11.8451 2.50016 10.8433 2.50016 9.99996C2.50016 9.24284 2.93562 8.358 4.01789 7.55293L2.83014 6.36517C1.58046 7.36213 0.833496 8.62554 0.833496 9.99996C0.833496 13.2216 4.93755 15.8333 10.0002 15.8333C10.7365 15.8333 11.4526 15.778 12.1387 15.6737Z" fill="#BCBCC2"/>
</svg>
