<svg width="28" height="28" viewBox="0 0 28 28" fill="none" xmlns="http://www.w3.org/2000/svg">
<g clip-path="url(#clip0_1201_54173)">
<path d="M16.2415 9.65266C16.9897 9.92951 17.6767 10.3492 18.2594 10.8854C18.8421 11.4217 19.3079 12.0628 19.6277 12.7687C20.8185 15.2747 21.132 18.0512 20.52 20.6703C20.3811 21.4501 20.0291 22.1725 19.4992 22.765C18.9693 23.3575 18.2801 23.7994 17.5007 24.0465C17.0111 24.2094 16.4863 24.2684 15.9615 24.2195C15.4367 24.1706 14.924 24.015 14.4581 23.763C14.1334 23.5906 13.8555 23.3448 13.6497 23.0481C13.444 22.7513 13.317 22.413 13.2802 22.0642C13.2178 21.5637 13.2269 21.0603 13.3071 20.568C13.4335 19.8876 13.3965 19.1821 13.1989 18.5039C13.1104 18.21 12.954 17.9363 12.7416 17.7037C12.5292 17.471 12.2663 17.2856 11.9729 17.1613C11.146 16.8633 10.3481 16.4895 9.5907 16.0452C9.04463 15.6319 8.64248 15.0684 8.44233 14.4362C8.24218 13.804 8.2544 13.1359 8.47724 12.5282C8.77811 11.7378 9.27635 11.0367 9.92989 10.484C10.5834 9.93128 11.3731 9.54326 12.2321 9.35268C13.5476 9.02733 14.9569 9.13317 16.2415 9.65266ZM3.25166 6.88856C3.39578 6.51641 3.61708 6.1787 3.90267 5.89511C4.18826 5.61152 4.53241 5.38774 4.91507 5.23681C5.29773 5.08588 5.71123 5.01082 6.13146 5.016C6.55169 5.02119 6.97025 5.10652 7.36272 5.26702C8.13498 5.6038 8.75207 6.2112 9.08216 6.95945C9.41224 7.70771 9.42915 8.53749 9.12926 9.27152C8.82937 10.0055 8.23647 10.5856 7.47723 10.8878C6.71799 11.1899 5.85261 11.1903 5.06598 10.8887C4.677 10.7297 4.32135 10.5 4.01944 10.2127C3.71754 9.92536 3.47533 9.5861 3.30674 9.2144C3.13815 8.84271 3.0465 8.44589 3.03705 8.04675C3.02759 7.64761 3.10053 7.25401 3.25166 6.88856ZM13.2622 6.33122C13.1832 6.51565 13.0654 6.68132 12.916 6.81834C12.7665 6.95535 12.5885 7.06089 12.3925 7.12868C12.1965 7.19646 11.9866 7.2251 11.7752 7.21287C11.5638 7.20065 11.3553 7.14781 11.1622 7.05752C10.7798 6.89223 10.4722 6.59483 10.3032 6.22702C10.1343 5.85921 10.117 5.44924 10.2548 5.08217C10.3297 4.89604 10.4437 4.72791 10.5899 4.5878C10.7361 4.44768 10.9115 4.33846 11.1058 4.26665C11.3 4.19484 11.509 4.16191 11.7204 4.16982C11.9318 4.17773 12.1412 4.22633 12.3361 4.3127C12.5346 4.39028 12.7165 4.50458 12.8711 4.64885C13.0258 4.79312 13.1499 4.96443 13.2363 5.15263C13.3227 5.34083 13.3694 5.54211 13.3739 5.74455C13.3784 5.94699 13.3404 6.14648 13.2622 6.33122ZM17.5254 6.46051C17.4526 6.64419 17.3412 6.81027 17.1978 6.94879C17.0543 7.0873 16.8819 7.19541 16.6909 7.26661C16.4998 7.33782 16.2941 7.37066 16.0859 7.36317C15.8778 7.35567 15.6715 7.308 15.4796 7.223C15.0915 7.05319 14.7821 6.7467 14.6183 6.36968C14.4545 5.99267 14.4493 5.57538 14.6039 5.2079C14.754 4.85226 15.0458 4.57293 15.4171 4.42948C15.7884 4.28604 16.2098 4.28984 16.5914 4.44008C16.7903 4.51747 16.9727 4.63161 17.1279 4.77576C17.2831 4.91991 17.4079 5.09116 17.495 5.2794C17.5821 5.46765 17.6296 5.66909 17.6349 5.87184C17.6402 6.07459 17.6028 6.27513 17.5254 6.46051ZM21.9413 8.32188C21.866 8.50457 21.7522 8.66919 21.6069 8.80587C21.4615 8.94254 21.2875 9.04845 21.0954 9.11724C20.9032 9.18603 20.6969 9.21629 20.4887 9.20619C20.2805 9.19609 20.0748 9.14585 19.8839 9.05848C19.4978 8.8842 19.1923 8.57414 19.0335 8.19535C18.8747 7.81655 18.8753 7.39945 19.0352 7.03422C19.1903 6.68101 19.486 6.40583 19.8593 6.2673C20.2325 6.12877 20.6538 6.13785 21.0334 6.29261C21.2315 6.37209 21.4126 6.48819 21.5661 6.63404C21.7196 6.77989 21.8423 6.95252 21.927 7.14172C22.0116 7.33092 22.0565 7.53285 22.059 7.73556C22.0615 7.93827 22.0215 8.13764 21.9413 8.32188Z" fill="#F2AC97"/>
</g>
<defs>
<clipPath id="clip0_1201_54173">
<rect width="28" height="28" fill="white"/>
</clipPath>
</defs>
</svg>
