<svg width="7" height="10" viewBox="0 0 7 10" fill="none" xmlns="http://www.w3.org/2000/svg">
<path d="M4.04095 6.88346L1.7332 6.88346C2.09939 5.85021 2.38921 5.52123 2.86859 4.88768C3.411 4.17082 4.01442 3.60752 4.01442 3.09026C4.01442 2.63004 3.72666 2.32318 3.17868 2.32318C2.63071 2.32318 2.29644 2.69785 2.29644 3.5412L3.09582e-07 3.5412L2.87551e-07 3.28921C1.04353e-07 1.19366 1.58731 -1.38767e-07 3.3778 -2.95297e-07C5.31419 -4.64581e-07 6.389 1.41913 6.389 2.81174C6.389 3.71362 6.03611 4.33559 5.14177 5.3317C4.60591 5.92854 4.2221 6.36718 4.04095 6.88346ZM4.04095 10.0002L1.7332 10.0002L1.7332 7.74555L4.04095 7.74555L4.04095 10.0002Z" fill="black"/>
</svg>
