<svg width="28" height="28" viewBox="0 0 28 28" fill="none" xmlns="http://www.w3.org/2000/svg">
<circle cx="14.0049" cy="14.0049" r="10.125" transform="rotate(180 14.0049 14.0049)" stroke="black" stroke-width="2" stroke-linecap="round"/>
<path d="M14.8139 15.945L12.5519 15.945C12.9108 14.9322 13.1949 14.6098 13.6647 13.9888C14.1964 13.2861 14.7879 12.734 14.7879 12.227C14.7879 11.7759 14.5058 11.4751 13.9687 11.4751C13.4316 11.4751 13.1039 11.8424 13.1039 12.669L10.853 12.669L10.853 12.422C10.853 10.368 12.4089 9.198 14.1639 9.198C16.0619 9.198 17.1154 10.589 17.1154 11.954C17.1154 12.838 16.7695 13.4476 15.8929 14.424C15.3676 15.009 14.9914 15.439 14.8139 15.945ZM14.8139 19L12.5519 19L12.5519 16.79L14.8139 16.79L14.8139 19Z" fill="black"/>
</svg>
