<svg width="20" height="20" viewBox="0 0 20 20" fill="none" xmlns="http://www.w3.org/2000/svg">
<path fill-rule="evenodd" clip-rule="evenodd" d="M4.4001 8.30049C4.4001 5.27603 6.8941 2.80049 10.0001 2.80049C13.1061 2.80049 15.6001 5.27603 15.6001 8.30049C15.6001 9.06311 15.3356 9.93061 14.8615 10.8562C14.3911 11.7747 13.7426 12.6958 13.0439 13.5498C11.9147 14.9302 10.6968 16.0847 10.0001 16.7092C9.30335 16.0847 8.08548 14.9302 6.95625 13.5498C6.25758 12.6958 5.60909 11.7747 5.13865 10.8562C4.66461 9.93061 4.4001 9.06311 4.4001 8.30049ZM10.0001 1.00049C5.9264 1.00049 2.6001 4.25571 2.6001 8.30049C2.6001 9.45584 2.99232 10.6141 3.53654 11.6767C4.08435 12.7463 4.81563 13.7759 5.56303 14.6895C7.0574 16.5163 8.68115 17.9576 9.22895 18.4273C9.67466 18.8094 10.3255 18.8094 10.7712 18.4273C11.319 17.9576 12.9428 16.5163 14.4372 14.6895C15.1846 13.7759 15.9158 12.7463 16.4637 11.6767C17.0079 10.6141 17.4001 9.45584 17.4001 8.30049C17.4001 4.25571 14.0738 1.00049 10.0001 1.00049ZM8.8001 7.90049C8.8001 7.23775 9.33736 6.70049 10.0001 6.70049C10.6628 6.70049 11.2001 7.23775 11.2001 7.90049C11.2001 8.56323 10.6628 9.10049 10.0001 9.10049C9.33736 9.10049 8.8001 8.56323 8.8001 7.90049ZM10.0001 5.10049C8.4537 5.10049 7.2001 6.35409 7.2001 7.90049C7.2001 9.44689 8.4537 10.7005 10.0001 10.7005C11.5465 10.7005 12.8001 9.44689 12.8001 7.90049C12.8001 6.35409 11.5465 5.10049 10.0001 5.10049Z" fill="black"/>
</svg>
